<?xml version="1.0" encoding="iso-8859-1"?>
<!-- Generator: Adobe Illustrator 19.0.0, SVG Export Plug-In . SVG Version: 6.00 Build 0)  -->
<svg version="1.1" id="Capa_1" xmlns="http://www.w3.org/2000/svg" xmlns:xlink="http://www.w3.org/1999/xlink" x="0px" y="0px"
	 viewBox="0 0 512 512" style="enable-background:new 0 0 512 512;" xml:space="preserve">
<path style="fill:#FF6E54;" d="M465.642,146.801v30.905c0,12.801,10.377,23.179,23.179,23.179c12.802,0,23.179-10.378,23.179-23.179
	v-30.905H465.642z"/>
<path style="fill:#FF9356;" d="M481.095,0H334.294c-12.801,0-23.179,10.378-23.179,23.179s10.378,23.179,23.179,23.179h98.568
	L325.594,153.626c-34.262-27.166-77.588-43.396-124.709-43.396C89.939,110.229,0,200.168,0,311.115S89.939,512,200.885,512
	s200.885-89.939,200.885-200.885c0-47.12-16.23-90.447-43.397-124.709L465.642,79.139v67.662c0,12.801,10.377,23.179,23.179,23.179
	c12.802,0,23.179-10.378,23.179-23.179V30.905C512,13.907,498.093,0,481.095,0z M200.885,465.642
	c-85.343,0-154.527-69.184-154.527-154.527s69.184-154.527,154.527-154.527s154.527,69.184,154.527,154.527
	S286.229,465.642,200.885,465.642z"/>
<g>
</g>
<g>
</g>
<g>
</g>
<g>
</g>
<g>
</g>
<g>
</g>
<g>
</g>
<g>
</g>
<g>
</g>
<g>
</g>
<g>
</g>
<g>
</g>
<g>
</g>
<g>
</g>
<g>
</g>
</svg>
